<svg xmlns="http://www.w3.org/2000/svg" width="126.158" height="126.39" viewBox="0 0 126.158 126.39"><defs><style>.a{fill:#336094;}.b{fill:#f3f4f4;}.c,.d{fill:none;stroke:#e99c23;stroke-miterlimit:10;}.c{stroke-width:14px;}.d{stroke-width:16px;}.e{fill:#333;}.f{fill:#cfd3d3;}</style></defs><g transform="translate(0 1.87)"><circle class="a" cx="62.26" cy="62.26" r="62.26"/><path class="b" d="M168.87,367.63a37.16,37.16,0,1,0-74.32,0,28.5,28.5,0,0,0,.84,7.39,37.11,37.11,0,0,0,73.48-7.39Z" transform="translate(-49.072 -325.12)"/><circle class="c" cx="37.16" cy="37.16" r="37.16" transform="translate(44.838 5.13)"/><line class="d" x1="14.93" y2="19.11" transform="translate(41.368 69.14)"/><path class="e" d="M101.54,414.43,83.12,438c-4.37,5.59-10.93,7.75-14.65,4.84l-2.17-1.69c-3.73-2.91-3.21-9.8,1.15-15.39l18.43-23.58Z" transform="translate(-49.072 -325.12)"/><path class="f" d="M62.2,372.02l15.67,12.24-3.65,4.67L58.27,377" transform="translate(-25.392 -294.96)"/></g></svg>